<svg width="31" height="30" viewBox="0 0 31 30" fill="none" xmlns="http://www.w3.org/2000/svg">
<path d="M1.10145 6.94908C1.02807 7.67518 0.98411 8.37705 0.967693 9.05391C0.631079 15.3516 3.37177 21.7296 8.51259 23.737C13.2489 25.8971 19.4688 23.9312 20.836 20.5012L18.7312 19.9243C18.7312 19.9243 21.3459 17.31 23.0214 15.6347C24.6968 13.9595 27.3122 11.3451 27.3122 11.3451C27.332 11.3654 28.6461 12.7299 29.4573 16.9584C30.093 20.2722 29.8593 22.9773 29.8593 22.9773L28.2577 22.5375C28.0347 22.9942 27.7875 23.4366 27.5132 23.8627C22.1007 31.635 12.419 31.1574 6.58267 27.2198C0.263292 23.054 -0.90648 15.0712 0.574914 9.00464C0.723343 8.33455 0.898703 7.64963 1.10145 6.94908Z" fill="black"/>
<path d="M3.86076 6.86057C7.58207 -0.198252 16.255 -1.37765 22.027 1.36217C28.1716 4.06371 31.1037 10.7674 30.9972 16.6822C31.0009 17.3436 30.9781 17.9948 30.9314 18.6785C30.8843 17.9947 30.8129 17.3501 30.7162 16.7036C29.9791 10.8252 26.2655 5.41587 21.0341 4.01962C15.9535 2.43338 9.99423 4.87088 8.72909 9.09677C8.70508 9.16776 8.68361 9.23961 8.66186 9.31097L10.279 9.87216L4.84093 15.3342C4.84093 15.3342 3.37998 14.2531 2.57555 11.6157C1.66907 8.64342 2.03855 7.0405 2.04406 7.01693L3.53521 7.53386C3.63697 7.30705 3.74538 7.08261 3.86076 6.86057Z" fill="black"/>
</svg>
